<mxfile host="65bd71144e">
    <diagram name="Class" id="51CUOcVoCndOdr33mxyW">
        <mxGraphModel dx="1056" dy="1920" grid="1" gridSize="10" guides="1" tooltips="1" connect="1" arrows="1" fold="1" page="1" pageScale="1" pageWidth="827" pageHeight="1169" math="0" shadow="0">
            <root>
                <mxCell id="0"/>
                <mxCell id="1" parent="0"/>
                <mxCell id="DhOVB-Bq9swnYtrSROc3-10" value="Controller" style="swimlane;fontStyle=0;childLayout=stackLayout;horizontal=1;startSize=26;fillColor=default;horizontalStack=0;resizeParent=1;resizeParentMax=0;resizeLast=0;collapsible=1;marginBottom=0;whiteSpace=wrap;html=1;fillStyle=auto;gradientColor=none;" parent="1" vertex="1">
                    <mxGeometry x="320" y="-570" width="160" height="130" as="geometry"/>
                </mxCell>
                <mxCell id="DhOVB-Bq9swnYtrSROc3-11" value="+ login() : String" style="text;strokeColor=none;fillColor=default;align=left;verticalAlign=top;spacingLeft=4;spacingRight=4;overflow=hidden;rotatable=0;points=[[0,0.5],[1,0.5]];portConstraint=eastwest;whiteSpace=wrap;html=1;" parent="DhOVB-Bq9swnYtrSROc3-10" vertex="1">
                    <mxGeometry y="26" width="160" height="26" as="geometry"/>
                </mxCell>
                <mxCell id="DhOVB-Bq9swnYtrSROc3-12" value="+ subScribe&lt;span style=&quot;color: rgb(0, 0, 0);&quot;&gt;()&lt;/span&gt;: String" style="text;strokeColor=none;fillColor=default;align=left;verticalAlign=top;spacingLeft=4;spacingRight=4;overflow=hidden;rotatable=0;points=[[0,0.5],[1,0.5]];portConstraint=eastwest;whiteSpace=wrap;html=1;" parent="DhOVB-Bq9swnYtrSROc3-10" vertex="1">
                    <mxGeometry y="52" width="160" height="26" as="geometry"/>
                </mxCell>
                <mxCell id="DhOVB-Bq9swnYtrSROc3-13" value="+ timeLine&lt;span style=&quot;color: rgb(0, 0, 0);&quot;&gt;()&lt;/span&gt;: String" style="text;strokeColor=none;fillColor=default;align=left;verticalAlign=top;spacingLeft=4;spacingRight=4;overflow=hidden;rotatable=0;points=[[0,0.5],[1,0.5]];portConstraint=eastwest;whiteSpace=wrap;html=1;" parent="DhOVB-Bq9swnYtrSROc3-10" vertex="1">
                    <mxGeometry y="78" width="160" height="26" as="geometry"/>
                </mxCell>
                <mxCell id="DhOVB-Bq9swnYtrSROc3-14" value="+ whisper&lt;span style=&quot;color: rgb(0, 0, 0);&quot;&gt;()&lt;/span&gt;&amp;nbsp;: String" style="text;strokeColor=none;fillColor=default;align=left;verticalAlign=top;spacingLeft=4;spacingRight=4;overflow=hidden;rotatable=0;points=[[0,0.5],[1,0.5]];portConstraint=eastwest;whiteSpace=wrap;html=1;" parent="DhOVB-Bq9swnYtrSROc3-10" vertex="1">
                    <mxGeometry y="104" width="160" height="26" as="geometry"/>
                </mxCell>
                <mxCell id="pXVUSuXxn5jq1_Upqyan-1" value="&lt;font style=&quot;font-size: 47px;&quot;&gt;Breeze:クラス設計書&lt;/font&gt;" style="text;align=center;fontStyle=1;verticalAlign=middle;spacingLeft=3;spacingRight=3;strokeColor=none;rotatable=0;points=[[0,0.5],[1,0.5]];portConstraint=eastwest;html=1;" parent="1" vertex="1">
                    <mxGeometry x="10" y="-1160" width="460" height="80" as="geometry"/>
                </mxCell>
                <mxCell id="10" value="" style="group" parent="1" vertex="1" connectable="0">
                    <mxGeometry x="480" y="-860" width="254" height="680" as="geometry"/>
                </mxCell>
                <mxCell id="-KkJfYtpqiWFNh0hxVii-15" value="" style="rounded=1;whiteSpace=wrap;html=1;movable=1;resizable=1;rotatable=1;deletable=1;editable=1;locked=0;connectable=1;" parent="10" vertex="1">
                    <mxGeometry width="254" height="680" as="geometry"/>
                </mxCell>
                <mxCell id="23" style="edgeStyle=none;html=1;exitX=0.5;exitY=1;exitDx=0;exitDy=0;entryX=0.5;entryY=0;entryDx=0;entryDy=0;" edge="1" parent="10" source="XDjXami3D_SshbjY1GcT-1" target="mR705c7uwkd3jhNmfchp-1">
                    <mxGeometry relative="1" as="geometry"/>
                </mxCell>
                <mxCell id="XDjXami3D_SshbjY1GcT-1" value="Whisper" style="swimlane;fontStyle=0;childLayout=stackLayout;horizontal=1;startSize=26;fillColor=default;horizontalStack=0;resizeParent=1;resizeParentMax=0;resizeLast=0;collapsible=1;marginBottom=0;whiteSpace=wrap;html=1;movable=1;resizable=1;rotatable=1;deletable=1;editable=1;locked=0;connectable=1;" parent="10" vertex="1">
                    <mxGeometry x="24" y="208.38709677419354" width="210" height="168.5806451612903" as="geometry"/>
                </mxCell>
                <mxCell id="XDjXami3D_SshbjY1GcT-2" value="&lt;span style=&quot;color: rgb(0, 0, 0);&quot;&gt;-&amp;nbsp;&lt;/span&gt;&lt;span style=&quot;color: rgb(0, 0, 0);&quot;&gt;userId : long&lt;/span&gt;" style="text;strokeColor=none;fillColor=default;align=left;verticalAlign=top;spacingLeft=4;spacingRight=4;overflow=hidden;rotatable=1;points=[[0,0.5],[1,0.5]];portConstraint=eastwest;whiteSpace=wrap;html=1;movable=1;resizable=1;deletable=1;editable=1;locked=0;connectable=1;" parent="XDjXami3D_SshbjY1GcT-1" vertex="1">
                    <mxGeometry y="26" width="210" height="28.516129032258064" as="geometry"/>
                </mxCell>
                <mxCell id="XDjXami3D_SshbjY1GcT-3" value="&lt;span style=&quot;color: rgb(0, 0, 0);&quot;&gt;- Whisper&lt;/span&gt;&lt;span style=&quot;color: rgb(0, 0, 0);&quot;&gt;Id : long&lt;/span&gt;" style="text;strokeColor=none;fillColor=default;align=left;verticalAlign=top;spacingLeft=4;spacingRight=4;overflow=hidden;rotatable=1;points=[[0,0.5],[1,0.5]];portConstraint=eastwest;whiteSpace=wrap;html=1;movable=1;resizable=1;deletable=1;editable=1;locked=0;connectable=1;" parent="XDjXami3D_SshbjY1GcT-1" vertex="1">
                    <mxGeometry y="54.516129032258064" width="210" height="28.516129032258064" as="geometry"/>
                </mxCell>
                <mxCell id="hDcUuP4t1vUgkQuMqnEN-1" value="&lt;span style=&quot;color: rgb(0, 0, 0);&quot;&gt;- text&lt;/span&gt;&lt;span style=&quot;color: rgb(0, 0, 0);&quot;&gt;&amp;nbsp;: String&lt;/span&gt;" style="text;strokeColor=none;fillColor=default;align=left;verticalAlign=top;spacingLeft=4;spacingRight=4;overflow=hidden;rotatable=1;points=[[0,0.5],[1,0.5]];portConstraint=eastwest;whiteSpace=wrap;html=1;movable=1;resizable=1;deletable=1;editable=1;locked=0;connectable=1;" parent="XDjXami3D_SshbjY1GcT-1" vertex="1">
                    <mxGeometry y="83.03225806451613" width="210" height="28.516129032258064" as="geometry"/>
                </mxCell>
                <mxCell id="P9Ho6MK0y4dEpbnp-wAY-1" value="&lt;span style=&quot;color: rgb(0, 0, 0);&quot;&gt;- postDate : LocalDateTime&lt;/span&gt;" style="text;strokeColor=none;fillColor=default;align=left;verticalAlign=top;spacingLeft=4;spacingRight=4;overflow=hidden;rotatable=1;points=[[0,0.5],[1,0.5]];portConstraint=eastwest;whiteSpace=wrap;html=1;movable=1;resizable=1;deletable=1;editable=1;locked=0;connectable=1;" parent="XDjXami3D_SshbjY1GcT-1" vertex="1">
                    <mxGeometry y="111.54838709677419" width="210" height="28.516129032258064" as="geometry"/>
                </mxCell>
                <mxCell id="dOiQu1Nv-F1wRDo9lM1y-3" value="-&amp;nbsp;&lt;span style=&quot;color: rgb(0, 0, 0);&quot;&gt;anonymous : boolean&lt;/span&gt;" style="text;strokeColor=none;fillColor=default;align=left;verticalAlign=top;spacingLeft=4;spacingRight=4;overflow=hidden;rotatable=1;points=[[0,0.5],[1,0.5]];portConstraint=eastwest;whiteSpace=wrap;html=1;movable=1;resizable=1;deletable=1;editable=1;locked=0;connectable=1;" parent="XDjXami3D_SshbjY1GcT-1" vertex="1">
                    <mxGeometry y="140.06451612903226" width="210" height="28.516129032258064" as="geometry"/>
                </mxCell>
                <mxCell id="mR705c7uwkd3jhNmfchp-1" value="&lt;span style=&quot;color: rgb(0, 0, 0);&quot;&gt;Whisper&lt;/span&gt;Repository" style="swimlane;fontStyle=0;childLayout=stackLayout;horizontal=1;startSize=26;fillColor=none;horizontalStack=0;resizeParent=1;resizeParentMax=0;resizeLast=0;collapsible=1;marginBottom=0;whiteSpace=wrap;html=1;movable=1;resizable=1;rotatable=1;deletable=1;editable=1;locked=0;connectable=1;" parent="10" vertex="1">
                    <mxGeometry x="24" y="394.83870967741933" width="210" height="74.25806451612902" as="geometry"/>
                </mxCell>
                <mxCell id="mR705c7uwkd3jhNmfchp-2" value="&lt;span style=&quot;color: rgb(63, 63, 63);&quot;&gt;+ selectAll&lt;span style=&quot;color: rgb(63, 63, 63);&quot;&gt;Whisper&lt;/span&gt;(): List&amp;lt;Whisper&amp;gt;&lt;/span&gt;&lt;div&gt;&lt;span style=&quot;color: rgb(63, 63, 63);&quot;&gt;&lt;span style=&quot;background-color: transparent; color: rgb(63, 63, 63);&quot;&gt;+ insertWhisper(&lt;/span&gt;&lt;span style=&quot;background-color: transparent; color: rgb(63, 63, 63);&quot;&gt;Whisper) : void&lt;/span&gt;&lt;/span&gt;&lt;/div&gt;" style="text;strokeColor=none;fillColor=none;align=left;verticalAlign=top;spacingLeft=4;spacingRight=4;overflow=hidden;rotatable=1;points=[[0,0.5],[1,0.5]];portConstraint=eastwest;whiteSpace=wrap;html=1;movable=1;resizable=1;deletable=1;editable=1;locked=0;connectable=1;" parent="mR705c7uwkd3jhNmfchp-1" vertex="1">
                    <mxGeometry y="26" width="210" height="48.258064516129025" as="geometry"/>
                </mxCell>
                <mxCell id="32" style="edgeStyle=orthogonalEdgeStyle;html=1;exitX=0;exitY=0.5;exitDx=0;exitDy=0;entryX=0;entryY=0.5;entryDx=0;entryDy=0;curved=1;dashed=1;" edge="1" parent="10" source="mR705c7uwkd3jhNmfchp-3" target="mR705c7uwkd3jhNmfchp-2">
                    <mxGeometry relative="1" as="geometry">
                        <Array as="points">
                            <mxPoint x="10" y="527"/>
                            <mxPoint x="10" y="445"/>
                        </Array>
                    </mxGeometry>
                </mxCell>
                <mxCell id="mR705c7uwkd3jhNmfchp-3" value="&lt;p style=&quot;margin:0px;margin-top:4px;text-align:center;&quot;&gt;&lt;i&gt;&amp;lt;&amp;lt;Interface&amp;gt;&amp;gt;&lt;/i&gt;&lt;br&gt;&lt;span style=&quot;color: rgb(0, 0, 0);&quot;&gt;&lt;span style=&quot;color: rgb(0, 0, 0);&quot;&gt;Whisper&lt;/span&gt;Mapper&lt;/span&gt;&lt;/p&gt;&lt;hr size=&quot;1&quot; style=&quot;border-style:solid;&quot;&gt;&lt;p style=&quot;margin:0px;margin-left:4px;&quot;&gt;&lt;/p&gt;&lt;p style=&quot;margin:0px;margin-left:4px;&quot;&gt;&lt;span style=&quot;color: rgb(63, 63, 63);&quot;&gt;+ selectAll&lt;/span&gt;&lt;span style=&quot;color: rgb(63, 63, 63);&quot;&gt;Whisper&lt;/span&gt;&lt;span style=&quot;color: rgb(63, 63, 63);&quot;&gt;(): List&amp;lt;Whisper&amp;gt;&lt;/span&gt;&lt;/p&gt;&lt;p style=&quot;margin:0px;margin-left:4px;&quot;&gt;&lt;span style=&quot;background-color: transparent; color: rgb(63, 63, 63);&quot;&gt;+ insertWhisper(&lt;/span&gt;&lt;span style=&quot;background-color: transparent; text-align: center; color: rgb(0, 0, 0);&quot;&gt;Whisper&lt;/span&gt;&lt;span style=&quot;background-color: transparent;&quot;&gt;): void&lt;/span&gt;&lt;/p&gt;" style="verticalAlign=top;align=left;overflow=fill;html=1;whiteSpace=wrap;movable=1;resizable=1;rotatable=1;deletable=1;editable=1;locked=0;connectable=1;" parent="10" vertex="1">
                    <mxGeometry x="24" y="482.5806451612903" width="210" height="87.74193548387096" as="geometry"/>
                </mxCell>
                <mxCell id="2" value="&lt;span style=&quot;color: rgb(0, 0, 0);&quot;&gt;Whisper&lt;/span&gt;Form" style="swimlane;fontStyle=0;childLayout=stackLayout;horizontal=1;startSize=26;fillColor=none;horizontalStack=0;resizeParent=1;resizeParentMax=0;resizeLast=0;collapsible=1;marginBottom=0;whiteSpace=wrap;html=1;movable=1;resizable=1;rotatable=1;deletable=1;editable=1;locked=0;connectable=1;" parent="10" vertex="1">
                    <mxGeometry x="24" y="581.2903225806451" width="210" height="74.25806451612902" as="geometry"/>
                </mxCell>
                <mxCell id="3" value="- text : String&lt;div&gt;-&amp;nbsp;&lt;span style=&quot;color: rgb(0, 0, 0); background-color: transparent;&quot;&gt;anonymous : boolean&lt;/span&gt;&lt;/div&gt;" style="text;strokeColor=none;fillColor=none;align=left;verticalAlign=top;spacingLeft=4;spacingRight=4;overflow=hidden;rotatable=1;points=[[0,0.5],[1,0.5]];portConstraint=eastwest;whiteSpace=wrap;html=1;movable=1;resizable=1;deletable=1;editable=1;locked=0;connectable=1;" parent="2" vertex="1">
                    <mxGeometry y="26" width="210" height="48.258064516129025" as="geometry"/>
                </mxCell>
                <mxCell id="-KkJfYtpqiWFNh0hxVii-8" value="WhisperService" style="swimlane;fontStyle=0;childLayout=stackLayout;horizontal=1;startSize=26;fillColor=none;horizontalStack=0;resizeParent=1;resizeParentMax=0;resizeLast=0;collapsible=1;marginBottom=0;whiteSpace=wrap;html=1;movable=1;resizable=1;rotatable=1;deletable=1;editable=1;locked=0;connectable=1;" parent="10" vertex="1">
                    <mxGeometry x="21" y="21.93548387096774" width="216" height="162" as="geometry">
                        <mxRectangle x="21" y="20" width="80" height="30" as="alternateBounds"/>
                    </mxGeometry>
                </mxCell>
                <mxCell id="-KkJfYtpqiWFNh0hxVii-9" value="+ WhisperRepository" style="text;strokeColor=none;fillColor=none;align=left;verticalAlign=top;spacingLeft=4;spacingRight=4;overflow=hidden;rotatable=1;points=[[0,0.5],[1,0.5]];portConstraint=eastwest;whiteSpace=wrap;html=1;movable=1;resizable=1;deletable=1;editable=1;locked=0;connectable=1;" parent="-KkJfYtpqiWFNh0hxVii-8" vertex="1">
                    <mxGeometry y="26" width="216" height="28.516129032258064" as="geometry"/>
                </mxCell>
                <mxCell id="-KkJfYtpqiWFNh0hxVii-10" value="+ getAllWhispers():List&amp;lt;Whisper&amp;gt;" style="text;strokeColor=none;fillColor=none;align=left;verticalAlign=top;spacingLeft=4;spacingRight=4;overflow=hidden;rotatable=1;points=[[0,0.5],[1,0.5]];portConstraint=eastwest;whiteSpace=wrap;html=1;movable=1;resizable=1;deletable=1;editable=1;locked=0;connectable=1;" parent="-KkJfYtpqiWFNh0hxVii-8" vertex="1">
                    <mxGeometry y="54.516129032258064" width="216" height="28.516129032258064" as="geometry"/>
                </mxCell>
                <mxCell id="-KkJfYtpqiWFNh0hxVii-11" value="+ insertWhisper(WhisperForm): void" style="text;strokeColor=none;fillColor=none;align=left;verticalAlign=top;spacingLeft=4;spacingRight=4;overflow=hidden;rotatable=1;points=[[0,0.5],[1,0.5]];portConstraint=eastwest;whiteSpace=wrap;html=1;movable=1;resizable=1;deletable=1;editable=1;locked=0;connectable=1;" parent="-KkJfYtpqiWFNh0hxVii-8" vertex="1">
                    <mxGeometry y="83.03225806451613" width="216" height="28.516129032258064" as="geometry"/>
                </mxCell>
                <mxCell id="-KkJfYtpqiWFNh0hxVii-14" value="+ getLongWhispersById(WhisperId): Whisper" style="text;strokeColor=none;fillColor=none;align=left;verticalAlign=top;spacingLeft=4;spacingRight=4;overflow=hidden;rotatable=1;points=[[0,0.5],[1,0.5]];portConstraint=eastwest;whiteSpace=wrap;html=1;movable=1;resizable=1;deletable=1;editable=1;locked=0;connectable=1;" parent="-KkJfYtpqiWFNh0hxVii-8" vertex="1">
                    <mxGeometry y="111.54838709677419" width="216" height="50.4516129032258" as="geometry"/>
                </mxCell>
                <mxCell id="18" style="edgeStyle=orthogonalEdgeStyle;html=1;exitX=1;exitY=0.5;exitDx=0;exitDy=0;entryX=1;entryY=0.5;entryDx=0;entryDy=0;curved=1;" edge="1" parent="10" source="3" target="-KkJfYtpqiWFNh0hxVii-10">
                    <mxGeometry relative="1" as="geometry">
                        <Array as="points">
                            <mxPoint x="280" y="631"/>
                            <mxPoint x="280" y="91"/>
                        </Array>
                    </mxGeometry>
                </mxCell>
                <mxCell id="22" style="edgeStyle=none;html=1;exitX=0.5;exitY=0;exitDx=0;exitDy=0;entryX=0.501;entryY=0.981;entryDx=0;entryDy=0;entryPerimeter=0;" edge="1" parent="10" source="XDjXami3D_SshbjY1GcT-1" target="-KkJfYtpqiWFNh0hxVii-14">
                    <mxGeometry relative="1" as="geometry"/>
                </mxCell>
                <mxCell id="30" style="edgeStyle=orthogonalEdgeStyle;html=1;exitX=1;exitY=0.5;exitDx=0;exitDy=0;entryX=1;entryY=0.5;entryDx=0;entryDy=0;curved=1;" edge="1" parent="10" source="hDcUuP4t1vUgkQuMqnEN-1" target="mR705c7uwkd3jhNmfchp-3">
                    <mxGeometry relative="1" as="geometry">
                        <Array as="points">
                            <mxPoint x="270" y="306"/>
                            <mxPoint x="270" y="527"/>
                        </Array>
                    </mxGeometry>
                </mxCell>
                <mxCell id="11" value="" style="group" parent="1" vertex="1" connectable="0">
                    <mxGeometry x="70" y="-860" width="250" height="660" as="geometry"/>
                </mxCell>
                <mxCell id="hEuefVeFwlzW0EuXrcYp-3" value="" style="rounded=1;whiteSpace=wrap;html=1;movable=1;resizable=1;rotatable=1;deletable=1;editable=1;locked=0;connectable=1;container=0;" parent="11" vertex="1">
                    <mxGeometry width="250" height="660" as="geometry"/>
                </mxCell>
                <mxCell id="16" style="edgeStyle=none;html=1;exitX=0.5;exitY=0;exitDx=0;exitDy=0;entryX=0.5;entryY=1;entryDx=0;entryDy=0;" edge="1" parent="11" source="EIFXByHQC6YLV38e1P_E-9" target="-KkJfYtpqiWFNh0hxVii-4">
                    <mxGeometry relative="1" as="geometry"/>
                </mxCell>
                <mxCell id="24" style="edgeStyle=none;html=1;exitX=0.5;exitY=1;exitDx=0;exitDy=0;entryX=0.5;entryY=0;entryDx=0;entryDy=0;" edge="1" parent="11" source="EIFXByHQC6YLV38e1P_E-9" target="KSDDxgmFxUc_5y4bQog4-7">
                    <mxGeometry relative="1" as="geometry"/>
                </mxCell>
                <mxCell id="EIFXByHQC6YLV38e1P_E-9" value="&lt;span style=&quot;color: rgb(0, 0, 0);&quot;&gt;User&lt;/span&gt;" style="swimlane;fontStyle=0;childLayout=stackLayout;horizontal=1;startSize=26;fillColor=default;horizontalStack=0;resizeParent=1;resizeParentMax=0;resizeLast=0;collapsible=1;marginBottom=0;whiteSpace=wrap;html=1;movable=1;resizable=1;rotatable=1;deletable=1;editable=1;locked=0;connectable=1;container=0;" parent="11" vertex="1">
                    <mxGeometry x="20" y="165" width="210" height="143" as="geometry"/>
                </mxCell>
                <mxCell id="KSDDxgmFxUc_5y4bQog4-7" value="UserRepository" style="swimlane;fontStyle=0;childLayout=stackLayout;horizontal=1;startSize=26;fillColor=none;horizontalStack=0;resizeParent=1;resizeParentMax=0;resizeLast=0;collapsible=1;marginBottom=0;whiteSpace=wrap;html=1;movable=1;resizable=1;rotatable=1;deletable=1;editable=1;locked=0;connectable=1;" parent="11" vertex="1">
                    <mxGeometry x="20" y="319" width="210" height="80" as="geometry"/>
                </mxCell>
                <mxCell id="KSDDxgmFxUc_5y4bQog4-8" value="&lt;span style=&quot;color: rgb(63, 63, 63);&quot;&gt;+ selectUserById(long): User&lt;/span&gt;&lt;div&gt;+ insertUser(User): void&lt;/div&gt;&lt;div&gt;+ deleteUserById(long): void&lt;/div&gt;" style="text;strokeColor=none;fillColor=none;align=left;verticalAlign=top;spacingLeft=4;spacingRight=4;overflow=hidden;rotatable=1;points=[[0,0.5],[1,0.5]];portConstraint=eastwest;whiteSpace=wrap;html=1;movable=1;resizable=1;deletable=1;editable=1;locked=0;connectable=1;" parent="KSDDxgmFxUc_5y4bQog4-7" vertex="1">
                    <mxGeometry y="26" width="210" height="54" as="geometry"/>
                </mxCell>
                <mxCell id="31" style="edgeStyle=orthogonalEdgeStyle;html=1;exitX=1;exitY=0.5;exitDx=0;exitDy=0;entryX=1;entryY=0.5;entryDx=0;entryDy=0;curved=1;dashed=1;" edge="1" parent="11" source="KSDDxgmFxUc_5y4bQog4-11" target="KSDDxgmFxUc_5y4bQog4-8">
                    <mxGeometry relative="1" as="geometry"/>
                </mxCell>
                <mxCell id="KSDDxgmFxUc_5y4bQog4-11" value="&lt;p style=&quot;margin:0px;margin-top:4px;text-align:center;&quot;&gt;&lt;i&gt;&amp;lt;&amp;lt;Interface&amp;gt;&amp;gt;&lt;/i&gt;&lt;br&gt;&lt;span style=&quot;color: rgb(0, 0, 0);&quot;&gt;UserMapper&lt;/span&gt;&lt;/p&gt;&lt;hr size=&quot;1&quot; style=&quot;border-style:solid;&quot;&gt;&lt;p style=&quot;margin:0px;margin-left:4px;&quot;&gt;&lt;/p&gt;&lt;p style=&quot;margin:0px;margin-left:4px;&quot;&gt;+ selectUserById(long): User&lt;br&gt;&lt;/p&gt;&lt;p style=&quot;margin:0px;margin-left:4px;&quot;&gt;+ insertUser(User): void&lt;/p&gt;" style="verticalAlign=top;align=left;overflow=fill;html=1;whiteSpace=wrap;movable=1;resizable=1;rotatable=1;deletable=1;editable=1;locked=0;connectable=1;" parent="11" vertex="1">
                    <mxGeometry x="20" y="429.00000000000006" width="210" height="99.00000000000001" as="geometry"/>
                </mxCell>
                <mxCell id="17" style="edgeStyle=orthogonalEdgeStyle;html=1;exitX=0;exitY=0.5;exitDx=0;exitDy=0;entryX=0;entryY=0.5;entryDx=0;entryDy=0;curved=1;" edge="1" parent="11" source="rUS1G7VYQWva-poZ00nN-1" target="-KkJfYtpqiWFNh0hxVii-4">
                    <mxGeometry relative="1" as="geometry">
                        <Array as="points">
                            <mxPoint x="-30" y="595"/>
                            <mxPoint x="-30" y="86"/>
                        </Array>
                    </mxGeometry>
                </mxCell>
                <mxCell id="rUS1G7VYQWva-poZ00nN-1" value="UserForm" style="swimlane;fontStyle=0;childLayout=stackLayout;horizontal=1;startSize=26;fillColor=none;horizontalStack=0;resizeParent=1;resizeParentMax=0;resizeLast=0;collapsible=1;marginBottom=0;whiteSpace=wrap;html=1;movable=1;resizable=1;rotatable=1;deletable=1;editable=1;locked=0;connectable=1;" parent="11" vertex="1">
                    <mxGeometry x="20" y="552.2" width="210" height="85.80000000000001" as="geometry"/>
                </mxCell>
                <mxCell id="rUS1G7VYQWva-poZ00nN-2" value="- name : String&lt;div&gt;&lt;br&gt;&lt;/div&gt;" style="text;strokeColor=none;fillColor=none;align=left;verticalAlign=top;spacingLeft=4;spacingRight=4;overflow=hidden;rotatable=0;points=[[0,0.5],[1,0.5]];portConstraint=eastwest;whiteSpace=wrap;html=1;movable=0;resizable=0;deletable=0;editable=0;locked=1;connectable=0;" parent="rUS1G7VYQWva-poZ00nN-1" vertex="1">
                    <mxGeometry y="26" width="210" height="26" as="geometry"/>
                </mxCell>
                <mxCell id="rUS1G7VYQWva-poZ00nN-3" value="- password : String" style="text;strokeColor=none;fillColor=none;align=left;verticalAlign=top;spacingLeft=4;spacingRight=4;overflow=hidden;rotatable=0;points=[[0,0.5],[1,0.5]];portConstraint=eastwest;whiteSpace=wrap;html=1;movable=0;resizable=0;deletable=0;editable=0;locked=1;connectable=0;" parent="rUS1G7VYQWva-poZ00nN-1" vertex="1">
                    <mxGeometry y="52" width="210" height="26" as="geometry"/>
                </mxCell>
                <mxCell id="EIFXByHQC6YLV38e1P_E-10" value="&lt;span style=&quot;color: rgb(0, 0, 0);&quot;&gt;-&amp;nbsp;&lt;/span&gt;&lt;span style=&quot;color: rgb(0, 0, 0);&quot;&gt;userId : long&lt;/span&gt;" style="text;strokeColor=none;fillColor=default;align=left;verticalAlign=top;spacingLeft=4;spacingRight=4;overflow=hidden;rotatable=1;points=[[0,0.5],[1,0.5]];portConstraint=eastwest;whiteSpace=wrap;html=1;movable=1;resizable=1;deletable=1;editable=1;locked=0;connectable=1;" parent="11" vertex="1">
                    <mxGeometry x="20" y="193.60000000000002" width="210" height="28.6" as="geometry"/>
                </mxCell>
                <mxCell id="29" style="edgeStyle=orthogonalEdgeStyle;html=1;exitX=0;exitY=0.5;exitDx=0;exitDy=0;entryX=0;entryY=0.5;entryDx=0;entryDy=0;curved=1;" edge="1" parent="11" source="XI6QMQr8LfCoOGA3mJXh-1" target="KSDDxgmFxUc_5y4bQog4-11">
                    <mxGeometry relative="1" as="geometry">
                        <Array as="points">
                            <mxPoint x="-20" y="237"/>
                            <mxPoint x="-20" y="479"/>
                        </Array>
                    </mxGeometry>
                </mxCell>
                <mxCell id="XI6QMQr8LfCoOGA3mJXh-1" value="- name : String" style="text;strokeColor=none;fillColor=default;align=left;verticalAlign=top;spacingLeft=4;spacingRight=4;overflow=hidden;rotatable=1;points=[[0,0.5],[1,0.5]];portConstraint=eastwest;whiteSpace=wrap;html=1;movable=1;resizable=1;deletable=1;editable=1;locked=0;connectable=1;" parent="11" vertex="1">
                    <mxGeometry x="20" y="222.20000000000002" width="210" height="28.6" as="geometry"/>
                </mxCell>
                <mxCell id="dLFgSaPDre7jzFYOqmJ8-1" value="&lt;span style=&quot;color: rgb(0, 0, 0);&quot;&gt;- password : String&lt;/span&gt;" style="text;strokeColor=none;fillColor=default;align=left;verticalAlign=top;spacingLeft=4;spacingRight=4;overflow=hidden;rotatable=1;points=[[0,0.5],[1,0.5]];portConstraint=eastwest;whiteSpace=wrap;html=1;movable=1;resizable=1;deletable=1;editable=1;locked=0;connectable=1;container=0;" parent="11" vertex="1">
                    <mxGeometry x="20" y="250.8" width="210" height="28.6" as="geometry"/>
                </mxCell>
                <mxCell id="XI6QMQr8LfCoOGA3mJXh-2" value="- subscribeDate : LocalDateTime" style="text;strokeColor=none;fillColor=default;align=left;verticalAlign=top;spacingLeft=4;spacingRight=4;overflow=hidden;rotatable=1;points=[[0,0.5],[1,0.5]];portConstraint=eastwest;whiteSpace=wrap;html=1;movable=1;resizable=1;deletable=1;editable=1;locked=0;connectable=1;" parent="11" vertex="1">
                    <mxGeometry x="20" y="279.40000000000003" width="210" height="28.6" as="geometry"/>
                </mxCell>
                <mxCell id="-KkJfYtpqiWFNh0hxVii-4" value="UserService" style="swimlane;fontStyle=0;childLayout=stackLayout;horizontal=1;startSize=26;fillColor=none;horizontalStack=0;resizeParent=1;resizeParentMax=0;resizeLast=0;collapsible=1;marginBottom=0;whiteSpace=wrap;html=1;movable=1;resizable=1;rotatable=1;deletable=1;editable=1;locked=0;connectable=1;" parent="11" vertex="1">
                    <mxGeometry x="20" y="28.6" width="210" height="114.4" as="geometry"/>
                </mxCell>
                <mxCell id="-KkJfYtpqiWFNh0hxVii-5" value="+ getUserById&lt;span style=&quot;color: rgb(63, 63, 63);&quot;&gt;(&lt;span style=&quot;color: rgb(0, 0, 0);&quot;&gt;long&lt;/span&gt;)&lt;/span&gt;: User" style="text;strokeColor=none;fillColor=none;align=left;verticalAlign=top;spacingLeft=4;spacingRight=4;overflow=hidden;rotatable=0;points=[[0,0.5],[1,0.5]];portConstraint=eastwest;whiteSpace=wrap;html=1;movable=0;resizable=0;deletable=0;editable=0;locked=1;connectable=0;" parent="-KkJfYtpqiWFNh0hxVii-4" vertex="1">
                    <mxGeometry y="26" width="210" height="26" as="geometry"/>
                </mxCell>
                <mxCell id="-KkJfYtpqiWFNh0hxVii-6" value="+ createUser(UserForm): void" style="text;strokeColor=none;fillColor=none;align=left;verticalAlign=top;spacingLeft=4;spacingRight=4;overflow=hidden;rotatable=0;points=[[0,0.5],[1,0.5]];portConstraint=eastwest;whiteSpace=wrap;html=1;movable=0;resizable=0;deletable=0;editable=0;locked=1;connectable=0;" parent="-KkJfYtpqiWFNh0hxVii-4" vertex="1">
                    <mxGeometry y="52" width="210" height="26" as="geometry"/>
                </mxCell>
                <mxCell id="-KkJfYtpqiWFNh0hxVii-7" value="+ deleteUserById(&lt;span style=&quot;color: rgb(0, 0, 0);&quot;&gt;long&lt;/span&gt;): void" style="text;strokeColor=none;fillColor=none;align=left;verticalAlign=top;spacingLeft=4;spacingRight=4;overflow=hidden;rotatable=0;points=[[0,0.5],[1,0.5]];portConstraint=eastwest;whiteSpace=wrap;html=1;movable=0;resizable=0;deletable=0;editable=0;locked=1;connectable=0;" parent="-KkJfYtpqiWFNh0hxVii-4" vertex="1">
                    <mxGeometry y="78" width="210" height="26" as="geometry"/>
                </mxCell>
                <mxCell id="13" style="edgeStyle=none;html=1;exitX=0;exitY=0.5;exitDx=0;exitDy=0;entryX=0.75;entryY=0;entryDx=0;entryDy=0;" edge="1" parent="1" source="-KkJfYtpqiWFNh0hxVii-10" target="DhOVB-Bq9swnYtrSROc3-10">
                    <mxGeometry relative="1" as="geometry"/>
                </mxCell>
                <mxCell id="14" style="edgeStyle=none;html=1;exitX=1;exitY=0.5;exitDx=0;exitDy=0;entryX=0.25;entryY=0;entryDx=0;entryDy=0;" edge="1" parent="1" source="-KkJfYtpqiWFNh0hxVii-4" target="DhOVB-Bq9swnYtrSROc3-10">
                    <mxGeometry relative="1" as="geometry"/>
                </mxCell>
            </root>
        </mxGraphModel>
    </diagram>
    <diagram id="i0w8mPDWeientbl8DSg2" name="ER">
        <mxGraphModel dx="792" dy="1732" grid="1" gridSize="10" guides="1" tooltips="1" connect="1" arrows="1" fold="1" page="1" pageScale="1" pageWidth="827" pageHeight="1169" math="0" shadow="0">
            <root>
                <mxCell id="0"/>
                <mxCell id="1" parent="0"/>
                <mxCell id="Bac1AXgxdqOP2vXgMy5j-1" value="user" style="shape=table;startSize=30;container=1;collapsible=1;childLayout=tableLayout;fixedRows=1;rowLines=0;fontStyle=1;align=center;resizeLast=1;html=1;" parent="1" vertex="1">
                    <mxGeometry x="150" y="-925" width="180" height="150" as="geometry">
                        <mxRectangle x="50" y="100" width="70" height="30" as="alternateBounds"/>
                    </mxGeometry>
                </mxCell>
                <mxCell id="Bac1AXgxdqOP2vXgMy5j-2" value="" style="shape=tableRow;horizontal=0;startSize=0;swimlaneHead=0;swimlaneBody=0;fillColor=none;collapsible=0;dropTarget=0;points=[[0,0.5],[1,0.5]];portConstraint=eastwest;top=0;left=0;right=0;bottom=1;" parent="Bac1AXgxdqOP2vXgMy5j-1" vertex="1">
                    <mxGeometry y="30" width="180" height="30" as="geometry"/>
                </mxCell>
                <mxCell id="Bac1AXgxdqOP2vXgMy5j-3" value="PK" style="shape=partialRectangle;connectable=0;fillColor=none;top=0;left=0;bottom=0;right=0;fontStyle=1;overflow=hidden;whiteSpace=wrap;html=1;" parent="Bac1AXgxdqOP2vXgMy5j-2" vertex="1">
                    <mxGeometry width="30" height="30" as="geometry">
                        <mxRectangle width="30" height="30" as="alternateBounds"/>
                    </mxGeometry>
                </mxCell>
                <mxCell id="Bac1AXgxdqOP2vXgMy5j-4" value="user_id" style="shape=partialRectangle;connectable=0;fillColor=none;top=0;left=0;bottom=0;right=0;align=left;spacingLeft=6;fontStyle=5;overflow=hidden;whiteSpace=wrap;html=1;" parent="Bac1AXgxdqOP2vXgMy5j-2" vertex="1">
                    <mxGeometry x="30" width="150" height="30" as="geometry">
                        <mxRectangle width="150" height="30" as="alternateBounds"/>
                    </mxGeometry>
                </mxCell>
                <mxCell id="Bac1AXgxdqOP2vXgMy5j-5" value="" style="shape=tableRow;horizontal=0;startSize=0;swimlaneHead=0;swimlaneBody=0;fillColor=none;collapsible=0;dropTarget=0;points=[[0,0.5],[1,0.5]];portConstraint=eastwest;top=0;left=0;right=0;bottom=0;" parent="Bac1AXgxdqOP2vXgMy5j-1" vertex="1">
                    <mxGeometry y="60" width="180" height="30" as="geometry"/>
                </mxCell>
                <mxCell id="Bac1AXgxdqOP2vXgMy5j-6" value="" style="shape=partialRectangle;connectable=0;fillColor=none;top=0;left=0;bottom=0;right=0;editable=1;overflow=hidden;whiteSpace=wrap;html=1;" parent="Bac1AXgxdqOP2vXgMy5j-5" vertex="1">
                    <mxGeometry width="30" height="30" as="geometry">
                        <mxRectangle width="30" height="30" as="alternateBounds"/>
                    </mxGeometry>
                </mxCell>
                <mxCell id="Bac1AXgxdqOP2vXgMy5j-7" value="name" style="shape=partialRectangle;connectable=0;fillColor=none;top=0;left=0;bottom=0;right=0;align=left;spacingLeft=6;overflow=hidden;whiteSpace=wrap;html=1;" parent="Bac1AXgxdqOP2vXgMy5j-5" vertex="1">
                    <mxGeometry x="30" width="150" height="30" as="geometry">
                        <mxRectangle width="150" height="30" as="alternateBounds"/>
                    </mxGeometry>
                </mxCell>
                <mxCell id="Bac1AXgxdqOP2vXgMy5j-8" value="" style="shape=tableRow;horizontal=0;startSize=0;swimlaneHead=0;swimlaneBody=0;fillColor=none;collapsible=0;dropTarget=0;points=[[0,0.5],[1,0.5]];portConstraint=eastwest;top=0;left=0;right=0;bottom=0;" parent="Bac1AXgxdqOP2vXgMy5j-1" vertex="1">
                    <mxGeometry y="90" width="180" height="30" as="geometry"/>
                </mxCell>
                <mxCell id="Bac1AXgxdqOP2vXgMy5j-9" value="" style="shape=partialRectangle;connectable=0;fillColor=none;top=0;left=0;bottom=0;right=0;editable=1;overflow=hidden;whiteSpace=wrap;html=1;" parent="Bac1AXgxdqOP2vXgMy5j-8" vertex="1">
                    <mxGeometry width="30" height="30" as="geometry">
                        <mxRectangle width="30" height="30" as="alternateBounds"/>
                    </mxGeometry>
                </mxCell>
                <mxCell id="Bac1AXgxdqOP2vXgMy5j-10" value="password" style="shape=partialRectangle;connectable=0;fillColor=none;top=0;left=0;bottom=0;right=0;align=left;spacingLeft=6;overflow=hidden;whiteSpace=wrap;html=1;" parent="Bac1AXgxdqOP2vXgMy5j-8" vertex="1">
                    <mxGeometry x="30" width="150" height="30" as="geometry">
                        <mxRectangle width="150" height="30" as="alternateBounds"/>
                    </mxGeometry>
                </mxCell>
                <mxCell id="Bac1AXgxdqOP2vXgMy5j-11" value="" style="shape=tableRow;horizontal=0;startSize=0;swimlaneHead=0;swimlaneBody=0;fillColor=none;collapsible=0;dropTarget=0;points=[[0,0.5],[1,0.5]];portConstraint=eastwest;top=0;left=0;right=0;bottom=0;" parent="Bac1AXgxdqOP2vXgMy5j-1" vertex="1">
                    <mxGeometry y="120" width="180" height="30" as="geometry"/>
                </mxCell>
                <mxCell id="Bac1AXgxdqOP2vXgMy5j-12" value="" style="shape=partialRectangle;connectable=0;fillColor=none;top=0;left=0;bottom=0;right=0;editable=1;overflow=hidden;whiteSpace=wrap;html=1;" parent="Bac1AXgxdqOP2vXgMy5j-11" vertex="1">
                    <mxGeometry width="30" height="30" as="geometry">
                        <mxRectangle width="30" height="30" as="alternateBounds"/>
                    </mxGeometry>
                </mxCell>
                <mxCell id="Bac1AXgxdqOP2vXgMy5j-13" value="subscribe_date" style="shape=partialRectangle;connectable=0;fillColor=none;top=0;left=0;bottom=0;right=0;align=left;spacingLeft=6;overflow=hidden;whiteSpace=wrap;html=1;" parent="Bac1AXgxdqOP2vXgMy5j-11" vertex="1">
                    <mxGeometry x="30" width="150" height="30" as="geometry">
                        <mxRectangle width="150" height="30" as="alternateBounds"/>
                    </mxGeometry>
                </mxCell>
                <mxCell id="-4Ak2GqZCE7B6QqBAycL-29" value="whisper" style="shape=table;startSize=30;container=1;collapsible=1;childLayout=tableLayout;fixedRows=1;rowLines=0;fontStyle=1;align=center;resizeLast=1;html=1;whiteSpace=wrap;" parent="1" vertex="1">
                    <mxGeometry x="540" y="-940" width="180" height="180" as="geometry"/>
                </mxCell>
                <mxCell id="-4Ak2GqZCE7B6QqBAycL-30" value="" style="shape=tableRow;horizontal=0;startSize=0;swimlaneHead=0;swimlaneBody=0;fillColor=none;collapsible=0;dropTarget=0;points=[[0,0.5],[1,0.5]];portConstraint=eastwest;top=0;left=0;right=0;bottom=0;html=1;" parent="-4Ak2GqZCE7B6QqBAycL-29" vertex="1">
                    <mxGeometry y="30" width="180" height="30" as="geometry"/>
                </mxCell>
                <mxCell id="-4Ak2GqZCE7B6QqBAycL-31" value="PK" style="shape=partialRectangle;connectable=0;fillColor=none;top=0;left=0;bottom=0;right=0;fontStyle=1;overflow=hidden;html=1;whiteSpace=wrap;" parent="-4Ak2GqZCE7B6QqBAycL-30" vertex="1">
                    <mxGeometry width="60" height="30" as="geometry">
                        <mxRectangle width="60" height="30" as="alternateBounds"/>
                    </mxGeometry>
                </mxCell>
                <mxCell id="-4Ak2GqZCE7B6QqBAycL-32" value="&lt;span style=&quot;color: rgb(0, 0, 0); text-align: center;&quot;&gt;whisper_id&lt;/span&gt;" style="shape=partialRectangle;connectable=0;fillColor=none;top=0;left=0;bottom=0;right=0;align=left;spacingLeft=6;fontStyle=5;overflow=hidden;html=1;whiteSpace=wrap;" parent="-4Ak2GqZCE7B6QqBAycL-30" vertex="1">
                    <mxGeometry x="60" width="120" height="30" as="geometry">
                        <mxRectangle width="120" height="30" as="alternateBounds"/>
                    </mxGeometry>
                </mxCell>
                <mxCell id="-4Ak2GqZCE7B6QqBAycL-33" value="" style="shape=tableRow;horizontal=0;startSize=0;swimlaneHead=0;swimlaneBody=0;fillColor=none;collapsible=0;dropTarget=0;points=[[0,0.5],[1,0.5]];portConstraint=eastwest;top=0;left=0;right=0;bottom=1;html=1;" parent="-4Ak2GqZCE7B6QqBAycL-29" vertex="1">
                    <mxGeometry y="60" width="180" height="30" as="geometry"/>
                </mxCell>
                <mxCell id="-4Ak2GqZCE7B6QqBAycL-34" value="FK" style="shape=partialRectangle;connectable=0;fillColor=none;top=0;left=0;bottom=0;right=0;fontStyle=1;overflow=hidden;html=1;whiteSpace=wrap;" parent="-4Ak2GqZCE7B6QqBAycL-33" vertex="1">
                    <mxGeometry width="60" height="30" as="geometry">
                        <mxRectangle width="60" height="30" as="alternateBounds"/>
                    </mxGeometry>
                </mxCell>
                <mxCell id="-4Ak2GqZCE7B6QqBAycL-35" value="&lt;span style=&quot;color: rgb(0, 0, 0);&quot;&gt;user_id&lt;/span&gt;" style="shape=partialRectangle;connectable=0;fillColor=none;top=0;left=0;bottom=0;right=0;align=left;spacingLeft=6;fontStyle=5;overflow=hidden;html=1;whiteSpace=wrap;" parent="-4Ak2GqZCE7B6QqBAycL-33" vertex="1">
                    <mxGeometry x="60" width="120" height="30" as="geometry">
                        <mxRectangle width="120" height="30" as="alternateBounds"/>
                    </mxGeometry>
                </mxCell>
                <mxCell id="-4Ak2GqZCE7B6QqBAycL-36" value="" style="shape=tableRow;horizontal=0;startSize=0;swimlaneHead=0;swimlaneBody=0;fillColor=none;collapsible=0;dropTarget=0;points=[[0,0.5],[1,0.5]];portConstraint=eastwest;top=0;left=0;right=0;bottom=0;html=1;" parent="-4Ak2GqZCE7B6QqBAycL-29" vertex="1">
                    <mxGeometry y="90" width="180" height="30" as="geometry"/>
                </mxCell>
                <mxCell id="-4Ak2GqZCE7B6QqBAycL-37" value="" style="shape=partialRectangle;connectable=0;fillColor=none;top=0;left=0;bottom=0;right=0;editable=1;overflow=hidden;html=1;whiteSpace=wrap;" parent="-4Ak2GqZCE7B6QqBAycL-36" vertex="1">
                    <mxGeometry width="60" height="30" as="geometry">
                        <mxRectangle width="60" height="30" as="alternateBounds"/>
                    </mxGeometry>
                </mxCell>
                <mxCell id="-4Ak2GqZCE7B6QqBAycL-38" value="text" style="shape=partialRectangle;connectable=0;fillColor=none;top=0;left=0;bottom=0;right=0;align=left;spacingLeft=6;overflow=hidden;html=1;whiteSpace=wrap;" parent="-4Ak2GqZCE7B6QqBAycL-36" vertex="1">
                    <mxGeometry x="60" width="120" height="30" as="geometry">
                        <mxRectangle width="120" height="30" as="alternateBounds"/>
                    </mxGeometry>
                </mxCell>
                <mxCell id="-4Ak2GqZCE7B6QqBAycL-39" value="" style="shape=tableRow;horizontal=0;startSize=0;swimlaneHead=0;swimlaneBody=0;fillColor=none;collapsible=0;dropTarget=0;points=[[0,0.5],[1,0.5]];portConstraint=eastwest;top=0;left=0;right=0;bottom=0;html=1;" parent="-4Ak2GqZCE7B6QqBAycL-29" vertex="1">
                    <mxGeometry y="120" width="180" height="30" as="geometry"/>
                </mxCell>
                <mxCell id="-4Ak2GqZCE7B6QqBAycL-40" value="" style="shape=partialRectangle;connectable=0;fillColor=none;top=0;left=0;bottom=0;right=0;editable=1;overflow=hidden;html=1;whiteSpace=wrap;" parent="-4Ak2GqZCE7B6QqBAycL-39" vertex="1">
                    <mxGeometry width="60" height="30" as="geometry">
                        <mxRectangle width="60" height="30" as="alternateBounds"/>
                    </mxGeometry>
                </mxCell>
                <mxCell id="-4Ak2GqZCE7B6QqBAycL-41" value="post_date" style="shape=partialRectangle;connectable=0;fillColor=none;top=0;left=0;bottom=0;right=0;align=left;spacingLeft=6;overflow=hidden;html=1;whiteSpace=wrap;" parent="-4Ak2GqZCE7B6QqBAycL-39" vertex="1">
                    <mxGeometry x="60" width="120" height="30" as="geometry">
                        <mxRectangle width="120" height="30" as="alternateBounds"/>
                    </mxGeometry>
                </mxCell>
                <mxCell id="wPIlpMbt7KFII1KVGFkX-1" style="shape=tableRow;horizontal=0;startSize=0;swimlaneHead=0;swimlaneBody=0;fillColor=none;collapsible=0;dropTarget=0;points=[[0,0.5],[1,0.5]];portConstraint=eastwest;top=0;left=0;right=0;bottom=0;html=1;" parent="-4Ak2GqZCE7B6QqBAycL-29" vertex="1">
                    <mxGeometry y="150" width="180" height="30" as="geometry"/>
                </mxCell>
                <mxCell id="wPIlpMbt7KFII1KVGFkX-2" style="shape=partialRectangle;connectable=0;fillColor=none;top=0;left=0;bottom=0;right=0;editable=1;overflow=hidden;html=1;whiteSpace=wrap;" parent="wPIlpMbt7KFII1KVGFkX-1" vertex="1">
                    <mxGeometry width="60" height="30" as="geometry">
                        <mxRectangle width="60" height="30" as="alternateBounds"/>
                    </mxGeometry>
                </mxCell>
                <mxCell id="wPIlpMbt7KFII1KVGFkX-3" value="anonymous" style="shape=partialRectangle;connectable=0;fillColor=none;top=0;left=0;bottom=0;right=0;align=left;spacingLeft=6;overflow=hidden;html=1;whiteSpace=wrap;" parent="wPIlpMbt7KFII1KVGFkX-1" vertex="1">
                    <mxGeometry x="60" width="120" height="30" as="geometry">
                        <mxRectangle width="120" height="30" as="alternateBounds"/>
                    </mxGeometry>
                </mxCell>
                <mxCell id="-4Ak2GqZCE7B6QqBAycL-42" style="edgeStyle=none;html=1;exitX=0.25;exitY=0;exitDx=0;exitDy=0;entryX=0.549;entryY=0.028;entryDx=0;entryDy=0;entryPerimeter=0;" parent="1" edge="1">
                    <mxGeometry relative="1" as="geometry"/>
                </mxCell>
                <mxCell id="3rRS31gGDkENcoDXHUwN-3" value="&lt;font style=&quot;font-size: 47px;&quot;&gt;Breeze:ER図&lt;/font&gt;" style="text;align=center;fontStyle=1;verticalAlign=middle;spacingLeft=3;spacingRight=3;strokeColor=none;rotatable=0;points=[[0,0.5],[1,0.5]];portConstraint=eastwest;html=1;" parent="1" vertex="1">
                    <mxGeometry x="20" y="-1150" width="340" height="80" as="geometry"/>
                </mxCell>
                <mxCell id="BexvTuny7RD2gQczPMYN-1" style="edgeStyle=none;html=1;exitX=1;exitY=0.5;exitDx=0;exitDy=0;entryX=0.002;entryY=0.007;entryDx=0;entryDy=0;entryPerimeter=0;endArrow=ERzeroToMany;endFill=0;" edge="1" parent="1" source="Bac1AXgxdqOP2vXgMy5j-5" target="-4Ak2GqZCE7B6QqBAycL-36">
                    <mxGeometry relative="1" as="geometry"/>
                </mxCell>
            </root>
        </mxGraphModel>
    </diagram>
</mxfile>